# xmcd
#
# Track frame offsets:
#	150
#	27515
#	48792
#	72003
#	86989
#	103447
#	123934
#	151625
#	178630
#	194709
#
# Disc length: 2902 seconds
#
# Revision: 1
# Processed by: cddbd v1.4PL0 Copyright (c) Steve Scherf et al.
# Submitted via: audiograbber 1.80.04
#
DISCID=860b540a
DTITLE=Connie Lush - Unfaithfully Yours
DYEAR=2002
DGENRE=Blues
TTITLE0=Standin'
TTITLE1=Get It Right
TTITLE2=Guilty
TTITLE3=You Can't Make Me Stay
TTITLE4=Dedicated To You
TTITLE5=It Hurts So Bad
TTITLE6=Can We Love Again
TTITLE7=I'd Rather Go Blnd
TTITLE8=Shoppn'
TTITLE9=Unfaithfully Yours
EXTD=Connie Lush With Blues Shouter\nwww.connielush.com
EXTT0=Connie Lush
EXTT1=John Lewis (Guitarist)
EXTT2=Randy Newman
EXTT3=Lush and Lewis
EXTT4=Lush, Lewis, Harris(bass)), woodward (drums)
EXTT5=Lush and Harris
EXTT6=Lush and Harris
EXTT7=Foster and Jordan - rec also by Etta James, Christine Perfect etc
EXTT8=Lewis and Lush
EXTT9=Lush
PLAYORDER=
